<svg height="272" width="320" viewBox="489 130 320 272" style="background-color:transparent;" preserveAspectRatio="xMinYMin meet" xmlns:xlink="http://www.w3.org/1999/xlink" xmlns="http://www.w3.org/2000/svg"><defs><style type="text/css">.svg-txt-center tspan {text-anchor: middle;}.svg-txt-right tspan {text-anchor: end;}</style></defs><g transform="translate(0,0)"><g transform="matrix(1,0,0,1,549,140)"><path style="fill:none;stroke:#333333;stroke-width:3.0;;" d="m198.1977474810045,29.26881934366494c0,4.810975287874417 -8.563936244588545,8.710332960793401 -19.130006119580372,8.710332960793401l-159.87865662308533,0c-10.566069874991827,0 -19.130006119580372,-3.8993576729189847 -19.130006119580372,-8.710332960793401l0,-18.043706595790123c0,-4.810975287874417 8.563936244588545,-8.710332960793401 19.130006119580372,-8.710332960793401l162.6108747764321,-2.488593724047799c10.567144846068555,0 19.131081090657098,5.143889067438901 19.131081090657098,9.954864355313317l-2.733328956792714,19.287748531187916z"/></g><text style="font-weight:bold; font-size: 12px; text-anchor: middle; font-family: arial,helvetica,sans-serif; fill: #333333;" class="svg-txt-center" y="163" x="649">Lexicon of words with labels</text></g><g transform="translate(0,0)"><g transform="matrix(1,0,0,1,566,212)"><path style="fill:none;stroke:#333333;stroke-width:3.0;;" d="m164.6717603449142,29.26881934366494c0,4.810975287874417 -7.115310213165607,8.710332960793401 -15.894084686417523,8.710332960793401l-132.83450575151866,0c-8.778774473251916,0 -15.894084686417523,-3.8993576729189847 -15.894084686417523,-8.710332960793401l0,-18.043706595790123c0,-4.810975287874417 7.115310213165607,-8.710332960793401 15.894084686417523,-8.710332960793401l135.10455765007046,-2.488593724047799c8.779667608425118,0 15.894977821590725,5.143889067438901 15.894977821590725,9.954864355313317l-2.2709748048974294,19.287748531187916z"/></g><text style="font-weight:bold; font-size: 12px; text-anchor: middle; font-family: arial,helvetica,sans-serif; fill: #333333;" class="svg-txt-center" y="235" x="649">Count words in article</text></g><g transform="translate(0,0)"><g transform="matrix(1,0,0,1,517,281)"><path style="fill:none;stroke:#333333;stroke-width:3.0;;" d="m260.3194295272895,29.26881934366494c0,4.810975287874417 -11.248155067519283,8.710332960793401 -25.125978186911535,8.710332960793401l-209.98987735569418,0c-13.877823119392252,0 -25.125978186911535,-3.8993576729189847 -25.125978186911535,-8.710332960793401l0,-18.043706595790123c0,-4.810975287874417 11.248155067519283,-8.710332960793401 25.125978186911535,-8.710332960793401l213.57846239292576,-2.488593724047799c13.879235021701984,0 25.127390089221265,5.143889067438901 25.127390089221265,9.954864355313317l-3.590044002951625,19.287748531187916z"/></g><text style="font-weight:bold; font-size: 12px; text-anchor: middle; font-family: arial,helvetica,sans-serif; fill: #333333;" class="svg-txt-center" y="304" x="649">Produce a sentiment score for an article</text></g><g transform="translate(0,0)"><path style="fill:none;stroke:#333333;stroke-width:2;;" d="M649,180 C649,194 649,194  649,208"/><polyline style="fill:#ffffff;stroke:#333333;stroke-width:2;fill-opacity:0;" points="639,190 649,208 659,190"/><text style="font-weight:Normal; font-size: 12px; text-anchor: middle; font-family: sans-serif; fill: #333333;" class="" y="194" x="664"/><text style="font-weight:Normal; font-size: 12px; text-anchor: start; font-family: sans-serif; fill: #333333;" class="" y="194" x="649"/><text style="font-weight:Normal; font-size: 12px; text-anchor: middle; font-family: sans-serif; fill: #333333;" class="" y="194" x="664"/></g><g transform="translate(0,0)"><path style="fill:none;stroke:#333333;stroke-width:2;;" d="M649,252 C649,264.5 649,264.5  649,277"/><polyline style="fill:#ffffff;stroke:#333333;stroke-width:2;fill-opacity:0;" points="639,259 649,277 659,259"/><text style="font-weight:Normal; font-size: 12px; text-anchor: middle; font-family: sans-serif; fill: #333333;" class="" y="263" x="664"/><text style="font-weight:Normal; font-size: 12px; text-anchor: start; font-family: sans-serif; fill: #333333;" class="" y="264" x="649"/><text style="font-weight:Normal; font-size: 12px; text-anchor: middle; font-family: sans-serif; fill: #333333;" class="" y="266" x="664"/></g><g transform="translate(0,0)"><g transform="matrix(1,0,0,1,506,349)"><path style="fill:none;stroke:#333333;stroke-width:3.0;;" d="m282.0127153212303,29.26881934366494c0,4.810975287874417 -12.185501323145889,8.710332960793401 -27.219809702487495,8.710332960793401l-227.489033802002,0c-15.034308379341606,0 -27.219809702487495,-3.8993576729189847 -27.219809702487495,-8.710332960793401l0,-18.043706595790123c0,-4.810975287874417 12.185501323145889,-8.710332960793401 27.219809702487495,-8.710332960793401l231.37666759233622,-2.488593724047799c15.035837940177148,0 27.22133926332304,5.143889067438901 27.22133926332304,9.954864355313317l-3.8892143365309266,19.287748531187916z"/></g><text style="font-weight:bold; font-size: 12px; text-anchor: middle; font-family: arial,helvetica,sans-serif; fill: #333333;" class="svg-txt-center" y="372" x="649">Predict price movement on article sentiment</text></g><g transform="translate(0,0)"><path style="fill:none;stroke:#333333;stroke-width:2;;" d="M649,321 C649,333 649,333  649,345"/><polyline style="fill:#ffffff;stroke:#333333;stroke-width:2;fill-opacity:0;" points="639,327 649,345 659,327"/><text style="font-weight:Normal; font-size: 12px; text-anchor: middle; font-family: sans-serif; fill: #333333;" class="" y="331" x="664"/><text style="font-weight:Normal; font-size: 12px; text-anchor: start; font-family: sans-serif; fill: #333333;" class="" y="333" x="649"/><text style="font-weight:Normal; font-size: 12px; text-anchor: middle; font-family: sans-serif; fill: #333333;" class="" y="335" x="664"/></g><text style="font-weight:Normal; font-size: 16px; text-anchor: end; font-family: Arial; fill: #ccc;" y="387" x="794">www.sketchboard.io</text></svg>