<svg height="1285" width="551" viewBox="181 72 551 1285" style="background-color:transparent;" preserveAspectRatio="xMinYMin meet" xmlns:xlink="http://www.w3.org/1999/xlink" xmlns="http://www.w3.org/2000/svg"><defs><style type="text/css">.svg-txt-center tspan {text-anchor: middle;}.svg-txt-right tspan {text-anchor: end;}</style></defs><g transform="translate(0,0)"><g transform="matrix(1,0,0,1,383,82)"><path style="fill:none;stroke:#333333;stroke-width:3.0;;" d="m7.026479586559585,1.6551882475885311l116.77212334172116,-1.6393764616162425c9.37508207094859,-0.13162225735024488 10.80522782538789,3.1292335930507758 10.990942148284157,7.8325718738985435l1.4008048309968641,35.48098377434879c0.24055290157415418,6.093029510477548 -1.6171886863296565,9.809741855430813 -9.266853776247684,9.65408306040035l-120.86705142751484,-2.4590646924243638c-3.3419995501183903,-0.06799067968084124 -6.105103795973235,-2.2753561661356474 -6.034212323368967,-5.100264109734292l0.9697875869256802,-38.668669335138496c0.07084443790630134,-2.8249202389221066 2.6917230305191797,-5.053336958520528 6.034212323368967,-5.100264109734292z"/></g><text style="font-weight:bold; font-size: 18px; text-anchor: middle; font-family: arial,helvetica,sans-serif; fill: #333333;" class="svg-txt-center" y="116" x="451">Design</text></g><g transform="translate(0,0)"><g transform="matrix(1,0,0,1,390,211)"><path style="fill:none;stroke:#333333;stroke-width:3.0;;" d="m77.89861716915104,29.26881934366494c0,4.810975287874417 -3.3659251906591794,8.710332960793401 -7.518758624113679,8.710332960793401l-62.83787996628727,0c-4.152833433454499,0 -7.518758624113679,-3.8993576729189847 -7.518758624113679,-8.710332960793401l0,-18.043706595790123c0,-4.810975287874417 3.3659251906591794,-8.710332960793401 7.518758624113679,-8.710332960793401l63.91173685242854,-2.488593724047799c4.1532559345244575,0 7.5191811251836365,5.143889067438901 7.5191811251836365,9.954864355313317l-1.074293470580221,19.287748531187916z"/></g><text style="font-weight:bold; font-size: 12px; text-anchor: middle; font-family: arial,helvetica,sans-serif; fill: #333333;" class="svg-txt-center" y="234" x="429">Word</text></g><g transform="translate(0,0)"><g transform="matrix(1,0,0,1,278,343)"><path style="fill:none;stroke:#333333;stroke-width:3.0;;" d="m140.02029921543604,29.26881934366494c0,4.810975287874417 -6.050144013589917,8.710332960793401 -13.51473069144484,8.710332960793401l-112.9491006988961,0c-7.464586677854923,0 -13.51473069144484,-3.8993576729189847 -13.51473069144484,-8.710332960793401l0,-18.043706595790123c0,-4.810975287874417 6.050144013589917,-8.710332960793401 13.51473069144484,-8.710332960793401l114.87932446892218,-2.488593724047799c7.465346110157885,0 13.515490123747801,5.143889067438901 13.515490123747801,9.954864355313317l-1.9310085167391315,19.287748531187916z"/></g><text style="font-weight:bold; font-size: 12px; text-anchor: middle; font-family: arial,helvetica,sans-serif; fill: #333333;" class="svg-txt-center" y="366" x="349">Machine learning</text></g><g transform="translate(0,0)"><rect style="fill: #000000;fill-opacity: 0;stroke-opacity:0;stroke-width: 1;stroke:%stroke%;" rx="4" height="35" width="100" y="345" x="467"/><text style="font-weight:Normal; font-size: 12px; text-anchor: start; font-family: arial,helvetica,sans-serif; fill: #333333;" class="" y="366" x="467"><tspan x="467">VS</tspan></text></g><g transform="translate(0,0)"><g transform="matrix(1,0,0,1,528,345)"><path style="fill:none;stroke:#333333;stroke-width:3.0;;" d="m111.42460430524133,29.26881934366494c0,4.810975287874417 -4.814551222082116,8.710332960793401 -10.754680057276527,8.710332960793401l-89.88203083785393,0c-5.94012883519441,0 -10.754680057276527,-3.8993576729189847 -10.754680057276527,-8.710332960793401l0,-18.043706595790123c0,-4.810975287874417 4.814551222082116,-8.710332960793401 10.754680057276527,-8.710332960793401l91.41805397879017,-2.488593724047799c5.940733172167893,0 10.75528439425001,5.143889067438901 10.75528439425001,9.954864355313317l-1.536647622475506,19.287748531187916z"/></g><text style="font-weight:bold; font-size: 12px; text-anchor: middle; font-family: arial,helvetica,sans-serif; fill: #333333;" class="svg-txt-center" y="368" x="584">Word count</text></g><g transform="translate(0,0)"><g transform="matrix(1,0,0,1,237,582)"><path style="fill:none;stroke:#333333;stroke-width:3.0;;" d="m131.1457732088239,29.26881934366494c0,4.810975287874417 -5.666684181742669,8.710332960793401 -12.658163253254674,8.710332960793401l-105.79035487995198,0c-6.991479071512006,0 -12.658163253254674,-3.8993576729189847 -12.658163253254674,-8.710332960793401l0,-18.043706595790123c0,-4.810975287874417 5.666684181742669,-8.710332960793401 12.658163253254674,-8.710332960793401l107.5982405237088,-2.488593724047799c6.992190370781681,0 12.658874552524349,5.143889067438901 12.658874552524349,9.954864355313317l-1.8086206530021443,19.287748531187916z"/></g><text style="font-weight:bold; font-size: 12px; text-anchor: middle; font-family: arial,helvetica,sans-serif; fill: #333333;" class="svg-txt-center" y="605" x="303">Information gain</text></g><g transform="translate(0,0)"><path style="fill:none;stroke:#333333;stroke-width:3.0;;stroke-linejoin: round; " d="m222,168l481,0l2,124l-483,0"/><path style="fill:none;stroke:#333333;stroke-width:3.0;;stroke-linejoin: round; " d="m197,168l27,0l2,124l-27,0z"/><text transform="matrix(0,-1,1,0,27.999999999999993,487)" style="font-weight:bold; font-size: 12px; text-anchor: start; font-family: arial,helvetica,sans-serif; fill: #333333;" class="" y="185" x="207">Classification base</text></g><g transform="translate(0,0)"><path style="fill:none;stroke:#333333;stroke-width:3.0;;stroke-linejoin: round; " d="m221,295l483,0l2,138l-485,0"/><path style="fill:none;stroke:#333333;stroke-width:3.0;;stroke-linejoin: round; " d="m196,295l27,0l2,138l-27,0z"/><text transform="matrix(0,-1,1,0,-100.00000000000001,627)" style="font-weight:bold; font-size: 12px; text-anchor: start; font-family: arial,helvetica,sans-serif; fill: #333333;" class="" y="312" x="206">Classification method</text></g><g transform="translate(0,0)"><path style="fill:none;stroke:#333333;stroke-width:3.0;;stroke-linejoin: round; " d="m224,436l485,0l2,110l-487,0"/><path style="fill:none;stroke:#333333;stroke-width:3.0;;stroke-linejoin: round; " d="m199,436l27,0l2,110l-27,0z"/><text transform="matrix(0,-1,1,0,-238,735)" style="font-weight:bold; font-size: 12px; text-anchor: start; font-family: arial,helvetica,sans-serif; fill: #333333;" class="" y="453" x="209">Text-to-vector</text></g><g transform="translate(0,0)"><g transform="matrix(1,0,0,1,263,472)"><path style="fill:none;stroke:#333333;stroke-width:3.0;;" d="m154.8111758931229,29.26881934366494c0,4.810975287874417 -6.68924373333533,8.710332960793401 -14.942343088428448,8.710332960793401l-124.88034373046962,0c-8.253099355093118,0 -14.942343088428448,-3.8993576729189847 -14.942343088428448,-8.710332960793401l0,-18.043706595790123c0,-4.810975287874417 6.68924373333533,-8.710332960793401 14.942343088428448,-8.710332960793401l127.01446437761112,-2.488593724047799c8.253939009118223,0 14.943182742453553,5.143889067438901 14.943182742453553,9.954864355313317l-2.13498828963411,19.287748531187916z"/></g><text style="font-weight:bold; font-size: 12px; text-anchor: middle; font-family: arial,helvetica,sans-serif; fill: #333333;" class="svg-txt-center" y="495" x="341">Binary Bag of Words</text></g><g transform="translate(0,0)"><rect style="fill: #000000;fill-opacity: 0;stroke-opacity:0;stroke-width: 1;stroke:%stroke%;" rx="4" height="35" width="100" y="472" x="455"/><text style="font-weight:Normal; font-size: 12px; text-anchor: start; font-family: arial,helvetica,sans-serif; fill: #333333;" class="" y="493" x="455"><tspan x="455">VS</tspan></text></g><g transform="translate(0,0)"><g transform="matrix(1,0,0,1,507,470)"><path style="fill:none;stroke:#333333;stroke-width:3.0;;" d="m151.85300055758555,29.26881934366494c0,4.810975287874417 -6.5614237893862475,8.710332960793401 -14.656820609031728,8.710332960793401l-122.49409512415491,0c-8.09539681964548,0 -14.656820609031728,-3.8993576729189847 -14.656820609031728,-8.710332960793401l0,-18.043706595790123c0,-4.810975287874417 6.5614237893862475,-8.710332960793401 14.656820609031728,-8.710332960793401l124.58743639587334,-2.488593724047799c8.096220429326156,0 14.657644218712404,5.143889067438901 14.657644218712404,9.954864355313317l-2.0941923350551144,19.287748531187916z"/></g><text style="font-weight:bold; font-size: 12px; text-anchor: middle; font-family: arial,helvetica,sans-serif; fill: #333333;" class="svg-txt-center" y="493" x="584">TFIDF vector space</text></g><g transform="translate(0,0)"><path style="fill:none;stroke:#333333;stroke-width:3.0;;stroke-linejoin: round; " d="m226,549l485,0l2,110l-487,0"/><path style="fill:none;stroke:#333333;stroke-width:3.0;;stroke-linejoin: round; " d="m201,549l27,0l2,110l-27,0z"/><text transform="matrix(0,-1,1,0,-349,850)" style="font-weight:bold; font-size: 12px; text-anchor: start; font-family: arial,helvetica,sans-serif; fill: #333333;" class="" y="566" x="211">Text-to-vector</text></g><g transform="translate(0,0)"><rect style="fill: #000000;fill-opacity: 0;stroke-opacity:0;stroke-width: 1;stroke:%stroke%;" rx="4" height="35" width="100" y="587" x="379"/><text style="font-weight:Normal; font-size: 12px; text-anchor: start; font-family: arial,helvetica,sans-serif; fill: #333333;" class="" y="608" x="379"><tspan x="379">VS</tspan></text></g><g transform="translate(0,0)"><g transform="matrix(1,0,0,1,405,582)"><path style="fill:none;stroke:#333333;stroke-width:3.0;;" d="m125.22942253774912,29.26881934366494c0,4.810975287874417 -5.411044293844503,8.710332960793401 -12.087118294461229,8.710332960793401l-101.01785766732256,0c-6.676074000616727,0 -12.087118294461229,-3.8993576729189847 -12.087118294461229,-8.710332960793401l0,-18.043706595790123c0,-4.810975287874417 5.411044293844503,-8.710332960793401 12.087118294461229,-8.710332960793401l102.74418456023321,-2.488593724047799c6.6767532111975445,0 12.087797505042047,5.143889067438901 12.087797505042047,9.954864355313317l-1.7270287438441527,19.287748531187916z"/></g><text style="font-weight:bold; font-size: 12px; text-anchor: middle; font-family: arial,helvetica,sans-serif; fill: #333333;" class="svg-txt-center" y="605" x="468">Corellation - based</text></g><g transform="translate(0,0)"><rect style="fill: #000000;fill-opacity: 0;stroke-opacity:0;stroke-width: 1;stroke:%stroke%;" rx="4" height="35" width="100" y="584" x="539"/><text style="font-weight:Normal; font-size: 12px; text-anchor: start; font-family: arial,helvetica,sans-serif; fill: #333333;" class="" y="605" x="539"><tspan x="539">VS</tspan></text></g><g transform="translate(0,0)"><g transform="matrix(1,0,0,1,562,579)"><path style="fill:none;stroke:#333333;stroke-width:3.0;;" d="m125.22942253774912,29.26881934366494c0,4.810975287874417 -5.411044293844503,8.710332960793401 -12.087118294461229,8.710332960793401l-101.01785766732256,0c-6.676074000616727,0 -12.087118294461229,-3.8993576729189847 -12.087118294461229,-8.710332960793401l0,-18.043706595790123c0,-4.810975287874417 5.411044293844503,-8.710332960793401 12.087118294461229,-8.710332960793401l102.74418456023321,-2.488593724047799c6.6767532111975445,0 12.087797505042047,5.143889067438901 12.087797505042047,9.954864355313317l-1.7270287438441527,19.287748531187916z"/></g><text style="font-weight:bold; font-size: 12px; text-anchor: middle; font-family: arial,helvetica,sans-serif; fill: #333333;" class="svg-txt-center" y="602" x="625">Lexicon - based</text></g><g transform="translate(0,0)"><path style="fill:none;stroke:#333333;stroke-width:3.0;;stroke-linejoin: round; " d="m226,661l485,0l2,118l-487,0"/><path style="fill:none;stroke:#333333;stroke-width:3.0;;stroke-linejoin: round; " d="m201,661l27,0l2,118l-27,0z"/><text transform="matrix(0,-1,1,0,-461,980)" style="font-weight:bold; font-size: 12px; text-anchor: start; font-family: arial,helvetica,sans-serif; fill: #333333;" class="" y="678" x="211">Learning algorithm</text></g><g transform="translate(0,0)"><g transform="matrix(1,0,0,1,232,700)"><path style="fill:none;stroke:#333333;stroke-width:3.0;;" d="m122.27124720221175,29.26881934366494c0,4.810975287874417 -5.283224349895421,8.710332960793401 -11.801595815064509,8.710332960793401l-98.63160906100786,0c-6.518371465169088,0 -11.801595815064509,-3.8993576729189847 -11.801595815064509,-8.710332960793401l0,-18.043706595790123c0,-4.810975287874417 5.283224349895421,-8.710332960793401 11.801595815064509,-8.710332960793401l100.31715657849543,-2.488593724047799c6.519034631405477,0 11.802258981300898,5.143889067438901 11.802258981300898,9.954864355313317l-1.6862327892651572,19.287748531187916z"/></g><text style="font-weight:bold; font-size: 12px; text-anchor: middle; font-family: arial,helvetica,sans-serif; fill: #333333;" class="svg-txt-center" y="723" x="294">Decision trees</text></g><g transform="translate(0,0)"><rect style="fill: #000000;fill-opacity: 0;stroke-opacity:0;stroke-width: 1;stroke:%stroke%;" rx="4" height="35" width="100" y="703" x="366"/><text style="font-weight:Normal; font-size: 12px; text-anchor: start; font-family: arial,helvetica,sans-serif; fill: #333333;" class="" y="724" x="366"><tspan x="366">VS</tspan></text></g><g transform="translate(0,0)"><g transform="matrix(1,0,0,1,394,701)"><path style="fill:none;stroke:#333333;stroke-width:3.0;;" d="m125.22942253774912,29.26881934366494c0,4.810975287874417 -5.411044293844503,8.710332960793401 -12.087118294461229,8.710332960793401l-101.01785766732256,0c-6.676074000616727,0 -12.087118294461229,-3.8993576729189847 -12.087118294461229,-8.710332960793401l0,-18.043706595790123c0,-4.810975287874417 5.411044293844503,-8.710332960793401 12.087118294461229,-8.710332960793401l102.74418456023321,-2.488593724047799c6.6767532111975445,0 12.087797505042047,5.143889067438901 12.087797505042047,9.954864355313317l-1.7270287438441527,19.287748531187916z"/></g><text style="font-weight:bold; font-size: 12px; text-anchor: middle; font-family: arial,helvetica,sans-serif; fill: #333333;" class="svg-txt-center" y="724" x="457">Naive Bayes</text></g><g transform="translate(0,0)"><rect style="fill: #000000;fill-opacity: 0;stroke-opacity:0;stroke-width: 1;stroke:%stroke%;" rx="4" height="35" width="100" y="703" x="534"/><text style="font-weight:Normal; font-size: 12px; text-anchor: start; font-family: arial,helvetica,sans-serif; fill: #333333;" class="" y="724" x="534"><tspan x="534">VS</tspan></text></g><g transform="translate(0,0)"><g transform="matrix(1,0,0,1,569,701)"><path style="fill:none;stroke:#333333;stroke-width:3.0;;" d="m125.22942253774912,29.26881934366494c0,4.810975287874417 -5.411044293844503,8.710332960793401 -12.087118294461229,8.710332960793401l-101.01785766732256,0c-6.676074000616727,0 -12.087118294461229,-3.8993576729189847 -12.087118294461229,-8.710332960793401l0,-18.043706595790123c0,-4.810975287874417 5.411044293844503,-8.710332960793401 12.087118294461229,-8.710332960793401l102.74418456023321,-2.488593724047799c6.6767532111975445,0 12.087797505042047,5.143889067438901 12.087797505042047,9.954864355313317l-1.7270287438441527,19.287748531187916z"/></g><text style="font-weight:bold; font-size: 12px; text-anchor: middle; font-family: arial,helvetica,sans-serif; fill: #333333;" class="svg-txt-center" y="724" x="632">SVM</text></g><g transform="translate(0,0)"><path style="fill:none;stroke:#333333;stroke-width:3.0;;stroke-linejoin: round; " d="m226,779l485,0l2,118l-487,0"/><path style="fill:none;stroke:#333333;stroke-width:3.0;;stroke-linejoin: round; " d="m201,779l27,0l2,118l-27,0z"/><text transform="matrix(0,-1,1,0,-579,1098)" style="font-weight:bold; font-size: 12px; text-anchor: start; font-family: arial,helvetica,sans-serif; fill: #333333;" class="" y="796" x="211">Learning algorithm</text></g><g transform="translate(0,0)"><g transform="matrix(1,0,0,1,267,819)"><path style="fill:none;stroke:#333333;stroke-width:3.0;;" d="m134.10394854436126,29.26881934366494c0,4.810975287874417 -5.794504125691751,8.710332960793401 -12.943685732651396,8.710332960793401l-108.17660348626669,0c-7.149181606959645,0 -12.943685732651396,-3.8993576729189847 -12.943685732651396,-8.710332960793401l0,-18.043706595790123c0,-4.810975287874417 5.794504125691751,-8.710332960793401 12.943685732651396,-8.710332960793401l110.02526850544659,-2.488593724047799c7.1499089505737485,0 12.9444130762655,5.143889067438901 12.9444130762655,9.954864355313317l-1.84941660758114,19.287748531187916z"/></g><text style="font-weight:bold; font-size: 12px; text-anchor: middle; font-family: arial,helvetica,sans-serif; fill: #333333;" class="svg-txt-center" y="842" x="335">Sentiment score</text></g><g transform="translate(0,0)"><rect style="fill: #000000;fill-opacity: 0;stroke-opacity:0;stroke-width: 1;stroke:%stroke%;" rx="4" height="35" width="100" y="818" x="455"/><text style="font-weight:Normal; font-size: 12px; text-anchor: start; font-family: arial,helvetica,sans-serif; fill: #333333;" class="" y="839" x="455"><tspan x="455">VS</tspan></text></g><g transform="translate(0,0)"><g transform="matrix(1,0,0,1,521,816)"><path style="fill:none;stroke:#333333;stroke-width:3.0;;" d="m125.22942253774912,29.26881934366494c0,4.810975287874417 -5.411044293844503,8.710332960793401 -12.087118294461229,8.710332960793401l-101.01785766732256,0c-6.676074000616727,0 -12.087118294461229,-3.8993576729189847 -12.087118294461229,-8.710332960793401l0,-18.043706595790123c0,-4.810975287874417 5.411044293844503,-8.710332960793401 12.087118294461229,-8.710332960793401l102.74418456023321,-2.488593724047799c6.6767532111975445,0 12.087797505042047,5.143889067438901 12.087797505042047,9.954864355313317l-1.7270287438441527,19.287748531187916z"/></g><text style="font-weight:bold; font-size: 12px; text-anchor: middle; font-family: arial,helvetica,sans-serif; fill: #333333;" class="svg-txt-center" y="839" x="584">Stock movement</text></g><g transform="translate(0,0)"><path style="fill:none;stroke:#333333;stroke-width:3.0;;stroke-linejoin: round; " d="m226,898l485,0l2,98l-487,0"/><path style="fill:none;stroke:#333333;stroke-width:3.0;;stroke-linejoin: round; " d="m201,898l27,0l2,98l-27,0z"/><text transform="matrix(0,-1,1,0,-698,1188)" style="font-weight:bold; font-size: 12px; text-anchor: start; font-family: arial,helvetica,sans-serif; fill: #333333;" class="" y="915" x="211"># of classes</text></g><g transform="translate(0,0)"><g transform="matrix(1,0,0,1,279,928)"><path style="fill:none;stroke:#333333;stroke-width:3.0;;" d="m96.63372762755444,29.26881934366494c0,4.810975287874417 -4.175451502336703,8.710332960793401 -9.327067660292917,8.710332960793401l-77.9507878062804,0c-5.151616157956214,0 -9.327067660292917,-3.8993576729189847 -9.327067660292917,-8.710332960793401l0,-18.043706595790123c0,-4.810975287874417 4.175451502336703,-8.710332960793401 9.327067660292917,-8.710332960793401l79.28291407010121,-2.488593724047799c5.152140273207554,0 9.327591775544256,5.143889067438901 9.327591775544256,9.954864355313317l-1.3326678495805273,19.287748531187916z"/></g><text style="font-weight:bold; font-size: 12px; text-anchor: middle; font-family: arial,helvetica,sans-serif; fill: #333333;" class="svg-txt-center" y="951" x="328">Pos, Neg</text></g><g transform="translate(0,0)"><g transform="matrix(1,0,0,1,239,211)"><path style="fill:none;stroke:#333333;stroke-width:3.0;;" d="m105.50825363416658,29.26881934366494c0,4.810975287874417 -4.558911334183951,8.710332960793401 -10.183635098483084,8.710332960793401l-85.10953362522451,0c-5.624723764299132,0 -10.183635098483084,-3.8993576729189847 -10.183635098483084,-8.710332960793401l0,-18.043706595790123c0,-4.810975287874417 4.558911334183951,-8.710332960793401 10.183635098483084,-8.710332960793401l86.5639980153146,-2.488593724047799c5.625296012583758,0 10.184207346767709,5.143889067438901 10.184207346767709,9.954864355313317l-1.4550557133175144,19.287748531187916z"/></g><text style="font-weight:bold; font-size: 12px; text-anchor: middle; font-family: arial,helvetica,sans-serif; fill: #333333;" class="svg-txt-center" y="234" x="292">Document</text></g><g transform="translate(0,0)"><rect style="fill: #000000;fill-opacity: 0;stroke-opacity:0;stroke-width: 1;stroke:%stroke%;" rx="4" height="34" width="100" y="925" x="444"/><text style="font-weight:Normal; font-size: 12px; text-anchor: start; font-family: arial,helvetica,sans-serif; fill: #333333;" class="" y="946" x="444"><tspan x="444">VS</tspan></text></g><g transform="translate(0,0)"><g transform="matrix(1,0,0,1,521,923)"><path style="fill:none;stroke:#333333;stroke-width:3.0;;" d="m125.22942253774912,29.26881934366494c0,4.810975287874417 -5.411044293844503,8.710332960793401 -12.087118294461229,8.710332960793401l-101.01785766732256,0c-6.676074000616727,0 -12.087118294461229,-3.8993576729189847 -12.087118294461229,-8.710332960793401l0,-18.043706595790123c0,-4.810975287874417 5.411044293844503,-8.710332960793401 12.087118294461229,-8.710332960793401l102.74418456023321,-2.488593724047799c6.6767532111975445,0 12.087797505042047,5.143889067438901 12.087797505042047,9.954864355313317l-1.7270287438441527,19.287748531187916z"/></g><text style="font-weight:bold; font-size: 12px; text-anchor: middle; font-family: arial,helvetica,sans-serif; fill: #333333;" class="svg-txt-center" y="946" x="584">Pos, Neg, Neutral</text></g><g transform="translate(0,0)"><path style="fill:none;stroke:#333333;stroke-width:3.0;;stroke-linejoin: round; " d="m226,998l488,0l2,133l-490,0"/><path style="fill:none;stroke:#333333;stroke-width:3.0;;stroke-linejoin: round; " d="m201,998l27,0l2,133l-27,0z"/><text transform="matrix(0,-1,1,0,-798,1329)" style="font-weight:bold; font-size: 12px; text-anchor: start; font-family: arial,helvetica,sans-serif; fill: #333333;" class="" y="1015" x="211">Evaluation timescale</text></g><g transform="translate(0,0)"><g transform="matrix(1,0,0,1,274,1037)"><path style="fill:none;stroke:#333333;stroke-width:3.0;;" d="m90.71737695647968,29.26881934366494c0,4.810975287874417 -3.9198116144385375,8.710332960793401 -8.756022701499473,8.710332960793401l-73.178290593651,0c-4.836211087060936,0 -8.756022701499473,-3.8993576729189847 -8.756022701499473,-8.710332960793401l0,-18.043706595790123c0,-4.810975287874417 3.9198116144385375,-8.710332960793401 8.756022701499473,-8.710332960793401l74.42885810662564,-2.488593724047799c4.836703113623418,0 8.756514728061957,5.143889067438901 8.756514728061957,9.954864355313317l-1.2510759404225358,19.287748531187916z"/></g><text style="font-weight:bold; font-size: 12px; text-anchor: middle; font-family: arial,helvetica,sans-serif; fill: #333333;" class="svg-txt-center" y="1060" x="320">Intraday</text></g><g transform="translate(0,0)"><rect style="fill: #000000;fill-opacity: 0;stroke-opacity:0;stroke-width: 1;stroke:%stroke%;" rx="4" height="34" width="100" y="1039" x="443"/><text style="font-weight:Normal; font-size: 12px; text-anchor: start; font-family: arial,helvetica,sans-serif; fill: #333333;" class="" y="1060" x="443"><tspan x="443">VS</tspan></text></g><g transform="translate(0,0)"><g transform="matrix(1,0,0,1,526,1037)"><path style="fill:none;stroke:#333333;stroke-width:3.0;;" d="m125.22942253774912,29.26881934366494c0,4.810975287874417 -5.411044293844503,8.710332960793401 -12.087118294461229,8.710332960793401l-101.01785766732256,0c-6.676074000616727,0 -12.087118294461229,-3.8993576729189847 -12.087118294461229,-8.710332960793401l0,-18.043706595790123c0,-4.810975287874417 5.411044293844503,-8.710332960793401 12.087118294461229,-8.710332960793401l102.74418456023321,-2.488593724047799c6.6767532111975445,0 12.087797505042047,5.143889067438901 12.087797505042047,9.954864355313317l-1.7270287438441527,19.287748531187916z"/></g><text style="font-weight:bold; font-size: 12px; text-anchor: middle; font-family: arial,helvetica,sans-serif; fill: #333333;" class="svg-txt-center" y="1060" x="589">Open / Close</text></g><g transform="translate(0,0)"><rect style="fill: #000000;fill-opacity: 0;stroke-opacity:0;stroke-width: 1;stroke:%stroke%;" rx="4" height="35" width="100" y="213" x="358"/><text style="font-weight:Normal; font-size: 12px; text-anchor: start; font-family: arial,helvetica,sans-serif; fill: #333333;" class="" y="234" x="358"><tspan x="358">VS</tspan></text></g><g transform="translate(0,0)"><path style="fill:none;stroke:#333333;stroke-width:3.0;;stroke-linejoin: round; " d="m227,1132l488,0l2,104l-490,0"/><path style="fill:none;stroke:#333333;stroke-width:3.0;;stroke-linejoin: round; " d="m202,1132l27,0l2,104l-27,0z"/><text transform="matrix(0,-1,1,0,-931,1437)" style="font-weight:bold; font-size: 12px; text-anchor: start; font-family: arial,helvetica,sans-serif; fill: #333333;" class="" y="1149" x="212">Threshold scale</text></g><g transform="translate(0,0)"><g transform="matrix(1,0,0,1,286,1162)"><path style="fill:none;stroke:#333333;stroke-width:3.0;;" d="m68.03803271735975,29.26881934366494c0,4.810975287874417 -2.939858710828903,8.710332960793401 -6.567017026124605,8.710332960793401l-54.88371794523824,0c-3.6271583152957017,0 -6.567017026124605,-3.8993576729189847 -6.567017026124605,-8.710332960793401l0,-18.043706595790123c0,-4.810975287874417 2.939858710828903,-8.710332960793401 6.567017026124605,-8.710332960793401l55.82164357996922,-2.488593724047799c3.627527335217563,0 6.567386046046466,5.143889067438901 6.567386046046466,9.954864355313317l-0.9383069553169018,19.287748531187916z"/></g><text style="font-weight:bold; font-size: 12px; text-anchor: middle; font-family: arial,helvetica,sans-serif; fill: #333333;" class="svg-txt-center" y="1185" x="320">Log</text></g><g transform="translate(0,0)"><rect style="fill: #000000;fill-opacity: 0;stroke-opacity:0;stroke-width: 1;stroke:%stroke%;" rx="4" height="34" width="100" y="1168" x="440"/><text style="font-weight:Normal; font-size: 12px; text-anchor: start; font-family: arial,helvetica,sans-serif; fill: #333333;" class="" y="1189" x="440"><tspan x="440">VS</tspan></text></g><g transform="translate(0,0)"><g transform="matrix(1,0,0,1,547,1160)"><path style="fill:none;stroke:#333333;stroke-width:3.0;;" d="m92.68949384683793,29.26881934366494c0,4.810975287874417 -4.005024910404592,8.710332960793401 -8.946371021097288,8.710332960793401l-74.76912299786079,0c-4.941346110692695,0 -8.946371021097288,-3.8993576729189847 -8.946371021097288,-8.710332960793401l0,-18.043706595790123c0,-4.810975287874417 4.005024910404592,-8.710332960793401 8.946371021097288,-8.710332960793401l76.04687676111749,-2.488593724047799c4.941848833484797,0 8.94687374388939,5.143889067438901 8.94687374388939,9.954864355313317l-1.2782732434751995,19.287748531187916z"/></g><text style="font-weight:bold; font-size: 12px; text-anchor: middle; font-family: arial,helvetica,sans-serif; fill: #333333;" class="svg-txt-center" y="1183" x="594">Percent</text></g><g transform="translate(0,0)"><rect style="fill: #000000;fill-opacity: 0;stroke-opacity:0;stroke-width: 1;stroke:%stroke%;" rx="4" height="35" width="100" y="213" x="483"/><text style="font-weight:Normal; font-size: 12px; text-anchor: start; font-family: arial,helvetica,sans-serif; fill: #333333;" class="" y="234" x="483"><tspan x="483">VS</tspan></text></g><g transform="translate(0,0)"><g transform="matrix(1,0,0,1,514,211)"><path style="fill:none;stroke:#333333;stroke-width:3.0;;" d="m157.7693512286603,29.26881934366494c0,4.810975287874417 -6.8170636772844135,8.710332960793401 -15.227865567825171,8.710332960793401l-127.26659233678433,0c-8.410801890540759,0 -15.227865567825171,-3.8993576729189847 -15.227865567825171,-8.710332960793401l0,-18.043706595790123c0,-4.810975287874417 6.8170636772844135,-8.710332960793401 15.227865567825171,-8.710332960793401l129.44149235934893,-2.488593724047799c8.411657588910293,0 15.228721266194706,5.143889067438901 15.228721266194706,9.954864355313317l-2.175784244213106,19.287748531187916z"/></g><text style="font-weight:bold; font-size: 12px; text-anchor: middle; font-family: arial,helvetica,sans-serif; fill: #333333;" class="svg-txt-center" y="234" x="594">Semantic orientation</text></g><g transform="translate(0,0)"><path style="fill:none;stroke:#333333;stroke-width:3.0;;stroke-linejoin: round; " d="m227,1238l488,0l2,104l-490,0"/><path style="fill:none;stroke:#333333;stroke-width:3.0;;stroke-linejoin: round; " d="m202,1238l27,0l2,104l-27,0z"/><text transform="matrix(0,-1,1,0,-1037,1538)" style="font-weight:bold; font-size: 12px; text-anchor: start; font-family: arial,helvetica,sans-serif; fill: #333333;" class="" y="1255" x="212">Score formula</text></g><g transform="translate(0,0)"><g transform="matrix(1,0,0,1,300,1268)"><path style="fill:none;stroke:#333333;stroke-width:3.0;;" d="m84.80102628540492,29.26881934366494c0,4.810975287874417 -3.664171726540372,8.710332960793401 -8.18497774270603,8.710332960793401l-68.40579338102158,0c-4.520806016165658,0 -8.18497774270603,-3.8993576729189847 -8.18497774270603,-8.710332960793401l0,-18.043706595790123c0,-4.810975287874417 3.664171726540372,-8.710332960793401 8.18497774270603,-8.710332960793401l69.57480214315005,-2.488593724047799c4.521265954039282,0 8.185437680579653,5.143889067438901 8.185437680579653,9.954864355313317l-1.1694840312645443,19.287748531187916z"/></g><text style="font-weight:bold; font-size: 12px; text-anchor: middle; font-family: arial,helvetica,sans-serif; fill: #333333;" class="svg-txt-center" y="1291" x="343">CAPM</text></g><g transform="translate(0,0)"><rect style="fill: #000000;fill-opacity: 0;stroke-opacity:0;stroke-width: 1;stroke:%stroke%;" rx="4" height="34" width="100" y="1272" x="449"/><text style="font-weight:Normal; font-size: 12px; text-anchor: start; font-family: arial,helvetica,sans-serif; fill: #333333;" class="" y="1293" x="449"><tspan x="449">VS</tspan></text></g><g transform="translate(0,0)"><g transform="matrix(1,0,0,1,533,1268)"><path style="fill:none;stroke:#333333;stroke-width:3.0;;" d="m132.131831654003,29.26881934366494c0,4.810975287874417 -5.709290829725696,8.710332960793401 -12.75333741305358,8.710332960793401l-106.58577108205688,0c-7.044046583327885,0 -12.75333741305358,-3.8993576729189847 -12.75333741305358,-8.710332960793401l0,-18.043706595790123c0,-4.810975287874417 5.709290829725696,-8.710332960793401 12.75333741305358,-8.710332960793401l108.40724985095473,-2.488593724047799c7.04476323071237,0 12.754054060438067,5.143889067438901 12.754054060438067,9.954864355313317l-1.8222193045284762,19.287748531187916z"/></g><text style="font-weight:bold; font-size: 12px; text-anchor: middle; font-family: arial,helvetica,sans-serif; fill: #333333;" class="svg-txt-center" y="1291" x="600">Fama &amp; French</text></g><text style="font-weight:Normal; font-size: 16px; text-anchor: end; font-family: Arial; fill: #ccc;" y="1342" x="717">www.sketchboard.io</text></svg>